<?xml version="1.0" encoding="UTF-8" standalone="no"?>
<!DOCTYPE svg PUBLIC "-//W3C//DTD SVG 1.1//EN" "http://www.w3.org/Graphics/SVG/1.1/DTD/svg11.dtd">
<!-- Generated by Microsoft Visio, SVG Export nvdla-hwarch-large.svg Page-1 -->
<svg xmlns="http://www.w3.org/2000/svg" xmlns:xlink="http://www.w3.org/1999/xlink" xmlns:ev="http://www.w3.org/2001/xml-events"
		width="3.75333in" height="5.00333in" viewBox="0 0 270.24 360.24" xml:space="preserve" color-interpolation-filters="sRGB"
		class="st10">
	<style type="text/css">
	<![CDATA[
		.st1 {fill:#f2dcda;stroke:#000000;stroke-linecap:round;stroke-linejoin:round;stroke-width:0.24}
		.st2 {fill:#000000;font-family:Arial;font-size:0.833336em}
		.st3 {fill:#e5b9b5;stroke:#000000;stroke-linecap:round;stroke-linejoin:round;stroke-width:0.24}
		.st4 {marker-end:url(#mrkr13-21);stroke:#000000;stroke-linecap:round;stroke-linejoin:round;stroke-width:0.25}
		.st5 {fill:#000000;fill-opacity:1;stroke:#000000;stroke-opacity:1;stroke-width:0.090252707581227}
		.st6 {fill:#ffffff}
		.st7 {stroke:#000000;stroke-linecap:round;stroke-linejoin:round;stroke-width:0.24}
		.st8 {fill:#ebf1df;stroke:#000000;stroke-linecap:round;stroke-linejoin:round;stroke-width:0.24}
		.st9 {font-size:1em}
		.st10 {fill:none;fill-rule:evenodd;font-size:12px;overflow:visible;stroke-linecap:square;stroke-miterlimit:3}
	]]>
	</style>

	<defs id="Markers">
		<g id="lend13">
			<path d="M 3 1 L 0 0 L 3 -1 L 3 1 " style="stroke:none"/>
		</g>
		<marker id="mrkr13-21" class="st5" refX="-33.24" orient="auto" markerUnits="strokeWidth" overflow="visible">
			<use xlink:href="#lend13" transform="scale(-11.08,-11.08) "/>
		</marker>
	</defs>
	<g>
		<title>Page-1</title>
		<g id="shape1-1" transform="translate(0.12,-72.12)">
			<title>Rectangle.1</title>
			<desc>NVDLA</desc>
			<rect x="0" y="216.24" width="180" height="144" class="st1"/>
			<text x="73.33" y="291.24" class="st2">NVDLA</text>		</g>
		<g id="shape2-4" transform="translate(108.12,-180.12)">
			<title>Rectangle.2</title>
			<desc>CSB</desc>
			<rect x="0" y="324.24" width="36" height="36" class="st3"/>
			<text x="7.72" y="345.24" class="st2">CSB</text>		</g>
		<g id="shape3-7" transform="translate(36.12,-180.12)">
			<title>Rectangle.3</title>
			<desc>IRQ</desc>
			<rect x="0" y="324.24" width="36" height="36" class="st3"/>
			<text x="9.11" y="345.24" class="st2">IRQ</text>		</g>
		<g id="shape4-10" transform="translate(18.12,-72.12)">
			<title>Rectangle.4</title>
			<desc>SRAMIF</desc>
			<rect x="0" y="324.24" width="54" height="36" class="st3"/>
			<text x="8.11" y="345.24" class="st2">SRAMIF</text>		</g>
		<g id="shape5-13" transform="translate(108.12,-72.12)">
			<title>Rectangle.5</title>
			<desc>DBBIF</desc>
			<rect x="0" y="324.24" width="54" height="36" class="st3"/>
			<text x="12.28" y="345.24" class="st2">DBBIF</text>		</g>
		<g id="shape6-16" transform="translate(45.12,-216.12)">
			<title>Dynamic connector.9</title>
			<path d="M9 360.24 L9 332.55" class="st4"/>
		</g>
		<g id="shape7-22" transform="translate(-225.12,108.12) rotate(-90) scale(-1,1)">
			<title>Straight bus.48</title>
			<path d="M27 345.84 L9 345.84 L9 342.24 L0 351.24 L9 360.24 L9 356.64 L27 356.64 L27 345.84 Z" class="st6"/>
			<path d="M27 345.84 L9 345.84 L9 342.24 L0 351.24 L9 360.24 L9 356.64 L27 356.64" class="st7"/>
		</g>
		<g id="shape8-25" transform="translate(477.36,144.12) rotate(90) scale(-1,1)">
			<title>Straight bus.8</title>
			<path d="M27 345.84 L9 345.84 L9 342.24 L0 351.24 L9 360.24 L9 356.64 L27 356.64 L27 345.84 Z" class="st6"/>
			<path d="M27 345.84 L9 345.84 L9 342.24 L0 351.24 L9 360.24 L9 356.64 L27 356.64" class="st7"/>
		</g>
		<g id="shape9-28" transform="translate(0.12,-324.12)">
			<title>Rectangle.9</title>
			<desc>CPU</desc>
			<rect x="0" y="324.24" width="180" height="36" class="st8"/>
			<text x="79.44" y="345.24" class="st2">CPU</text>		</g>
		<g id="shape12-31" transform="translate(216.12,-0.12)">
			<title>Rectangle.12</title>
			<desc>External DRAM</desc>
			<rect x="0" y="0.24" width="54" height="360" class="st8"/>
			<text x="8.66" y="177.24" class="st2">External <tspan x="12.28" dy="1.2em" class="st9">DRAM</tspan></text>		</g>
		<g id="shape13-35" transform="translate(216.12,-333.12) scale(-1,1)">
			<title>Straight bus.13</title>
			<path d="M27 345.84 L9 345.84 L9 342.24 L0 351.24 L9 360.24 L9 356.64 L27 356.64 L27 345.84 Z" class="st6"/>
			<path d="M27 345.84 L9 345.84 L9 342.24 L0 351.24 L9 360.24 L9 356.64 L27 356.64" class="st7"/>
		</g>
		<g id="shape14-38" transform="translate(180.12,369.36) scale(1,-1)">
			<title>Straight bus.14</title>
			<path d="M27 345.84 L9 345.84 L9 342.24 L0 351.24 L9 360.24 L9 356.64 L27 356.64 L27 345.84 Z" class="st6"/>
			<path d="M27 345.84 L9 345.84 L9 342.24 L0 351.24 L9 360.24 L9 356.64 L27 356.64" class="st7"/>
		</g>
		<g id="shape15-41" transform="translate(135.12,-54.12)">
			<title>Elbow bus 2.50</title>
			<path d="M5.4 360.24 L5.4 372.84 L72 372.84 L72 369.24 L81 378.24 L72 387.24 L72 383.64 L-5.4 383.64 L-5.4 360.24 L5.4
						 360.24 Z" class="st6"/>
			<path d="M5.4 360.24 L5.4 372.84 L72 372.84 L72 369.24 L81 378.24 L72 387.24 L72 383.64 L-5.4 383.64 L-5.4 360.24"
					class="st7"/>
		</g>
		<g id="shape16-44" transform="translate(-216.12,288.12) rotate(-90) scale(-1,1)">
			<title>Straight bus.16</title>
			<path d="M27 345.84 L9 345.84 L9 342.24 L0 351.24 L9 360.24 L9 356.64 L27 356.64 L27 345.84 Z" class="st6"/>
			<path d="M27 345.84 L9 345.84 L9 342.24 L0 351.24 L9 360.24 L9 356.64 L27 356.64" class="st7"/>
		</g>
		<g id="shape17-47" transform="translate(18.12,-252.12)">
			<title>Rectangle.47.17</title>
			<desc>Microcontroller</desc>
			<rect x="0" y="324.24" width="144" height="36" class="st8"/>
			<text x="39.21" y="345.24" class="st2">Microcontroller</text>		</g>
		<g id="shape18-50" transform="translate(-261.12,36.12) rotate(-90) scale(-1,1)">
			<title>Straight bus.18</title>
			<path d="M27 345.84 L9 345.84 L9 342.24 L0 351.24 L9 360.24 L9 356.64 L27 356.64 L27 345.84 Z" class="st6"/>
			<path d="M27 345.84 L9 345.84 L9 342.24 L0 351.24 L9 360.24 L9 356.64 L27 356.64" class="st7"/>
		</g>
		<g id="shape19-53" transform="translate(441.36,72.12) rotate(90) scale(-1,1)">
			<title>Straight bus.19</title>
			<path d="M27 345.84 L9 345.84 L9 342.24 L0 351.24 L9 360.24 L9 356.64 L27 356.64 L27 345.84 Z" class="st6"/>
			<path d="M27 345.84 L9 345.84 L9 342.24 L0 351.24 L9 360.24 L9 356.64 L27 356.64" class="st7"/>
		</g>
		<g id="shape20-56" transform="translate(0.12,-0.12)">
			<title>Rectangle.20</title>
			<desc>SRAM</desc>
			<rect x="0" y="324.24" width="90" height="36" class="st8"/>
			<text x="30.55" y="345.24" class="st2">SRAM</text>		</g>
		<g id="shape21-59" transform="translate(-306.12,288.12) rotate(-90) scale(-1,1)">
			<title>Straight bus.21</title>
			<path d="M27 345.84 L9 345.84 L9 342.24 L0 351.24 L9 360.24 L9 356.64 L27 356.64 L27 345.84 Z" class="st6"/>
			<path d="M27 345.84 L9 345.84 L9 342.24 L0 351.24 L9 360.24 L9 356.64 L27 356.64" class="st7"/>
		</g>
		<g id="shape22-62" transform="translate(396.36,324.12) rotate(90) scale(-1,1)">
			<title>Straight bus.22</title>
			<path d="M27 345.84 L9 345.84 L9 342.24 L0 351.24 L9 360.24 L9 356.64 L27 356.64 L27 345.84 Z" class="st6"/>
			<path d="M27 345.84 L9 345.84 L9 342.24 L0 351.24 L9 360.24 L9 356.64 L27 356.64" class="st7"/>
		</g>
	</g>
</svg>
