<?xml version="1.0" encoding="UTF-8" standalone="no"?>
<!DOCTYPE svg PUBLIC "-//W3C//DTD SVG 1.1//EN" "http://www.w3.org/Graphics/SVG/1.1/DTD/svg11.dtd">
<!-- Generated by Microsoft Visio, SVG Export nvdla-hwarch-regfile.svg Register file -->
<svg xmlns="http://www.w3.org/2000/svg" xmlns:xlink="http://www.w3.org/1999/xlink" xmlns:ev="http://www.w3.org/2001/xml-events"
		width="3.49923in" height="4.42434in" viewBox="0 0 251.944 318.553" xml:space="preserve" color-interpolation-filters="sRGB"
		class="st13">
	<style type="text/css">
	<![CDATA[
		.st1 {fill:#ffffff;marker-end:url(#mrkr13-4);stroke:#000000;stroke-width:0.25}
		.st2 {fill:#000000;fill-opacity:1;stroke:#000000;stroke-opacity:1;stroke-width:0.090252707581227}
		.st3 {fill:#feffff;stroke:#000000;stroke-width:0.25}
		.st4 {fill:#000000;font-family:Arial;font-size:0.666664em}
		.st5 {fill:none;marker-end:url(#mrkr13-11);stroke:none;stroke-width:0.25}
		.st6 {fill:#c8c8c8;fill-opacity:1;stroke:#c8c8c8;stroke-opacity:1;stroke-width:0.090252707581227}
		.st7 {font-size:1em}
		.st8 {marker-end:url(#mrkr13-24);stroke:#000000;stroke-linecap:round;stroke-linejoin:round;stroke-width:1}
		.st9 {fill:#000000;fill-opacity:1;stroke:#000000;stroke-opacity:1;stroke-width:0.28409090909091}
		.st10 {fill:#d8d8d8;stroke:#000000;stroke-width:0.25}
		.st11 {fill:#000000;font-family:Arial;font-size:0.499992em}
		.st12 {stroke:#000000;stroke-linecap:round;stroke-linejoin:round;stroke-width:1}
		.st13 {fill:none;fill-rule:evenodd;font-size:12px;overflow:visible;stroke-linecap:square;stroke-miterlimit:3}
	]]>
	</style>

	<defs id="Markers">
		<g id="lend13">
			<path d="M 3 1 L 0 0 L 3 -1 L 3 1 " style="stroke:none"/>
		</g>
		<marker id="mrkr13-4" class="st2" refX="-33.24" orient="auto" markerUnits="strokeWidth" overflow="visible">
			<use xlink:href="#lend13" transform="scale(-11.08,-11.08) "/>
		</marker>
		<marker id="mrkr13-11" class="st6" refX="-33.24" orient="auto" markerUnits="strokeWidth" overflow="visible">
			<use xlink:href="#lend13" transform="scale(-11.08,-11.08) "/>
		</marker>
		<marker id="mrkr13-24" class="st9" refX="-10.56" orient="auto" markerUnits="strokeWidth" overflow="visible">
			<use xlink:href="#lend13" transform="scale(-3.52,-3.52) "/>
		</marker>
	</defs>
	<g>
		<title>Register file</title>
		<g id="shape1-1" transform="translate(26.7595,-50.854)">
			<title>Sheet.1</title>
			<rect x="0" y="105.954" width="198.425" height="212.598" class="st1"/>
		</g>
		<g id="shape2-5" transform="translate(26.7595,-277.626)">
			<title>Rectangle.2</title>
			<desc>CSB master</desc>
			<rect x="0" y="295.876" width="198.425" height="22.6772" class="st3"/>
			<text x="77.65" y="309.61" class="st4">CSB master</text>		</g>
		<g id="shape3-8" transform="translate(165.09,-26.7595)">
			<title>Sheet.3</title>
			<desc>dp2reg done</desc>
			<rect x="0" y="294.458" width="38.8346" height="24.0945" class="st5"/>
			<text x="6.96" y="304.11" class="st4">dp2reg <tspan x="9.41" dy="1.2em" class="st7"> </tspan>done</text>		</g>
		<g id="shape4-14" transform="translate(55.106,-27.1847)">
			<title>Sheet.4</title>
			<desc>register fields</desc>
			<rect x="0" y="294.884" width="39.685" height="23.6693" class="st5"/>
			<text x="6.5" y="304.32" class="st4">register <tspan x="10.5" dy="1.2em" class="st7">fields</tspan></text>		</g>
		<g id="shape5-19" transform="translate(-114.628,288.959) rotate(-90)">
			<title>Sheet.5</title>
			<path d="M0 318.55 L60.31 318.55" class="st8"/>
		</g>
		<g id="shape6-25" transform="translate(166.5,-238.862)">
			<title>Sheet.6</title>
			<desc>Register file</desc>
			<rect x="0" y="294.884" width="58.6847" height="23.6693" class="st5"/>
			<text x="12.45" y="306.08" class="st4">Register file</text>		</g>
		<g id="shape7-29" transform="translate(55.106,-199.673)">
			<title>Trapezoid.43</title>
			<desc>mux</desc>
			<path d="M0 318.55 L77.95 318.55 L70.16 307.21 L7.8 307.21 L0 318.55 Z" class="st10"/>
			<text x="31.42" y="315.28" class="st4">mux</text>		</g>
		<g id="shape8-32" transform="translate(-182.659,76.3602) rotate(-90)">
			<title>Sheet.8</title>
			<path d="M0 318.55 L24.87 318.55" class="st8"/>
		</g>
		<g id="shape9-37" transform="translate(55.106,-228.019)">
			<title>Rectangle.9</title>
			<desc>addr</desc>
			<rect x="0" y="304.38" width="27.7795" height="14.1732" class="st10"/>
			<text x="5.88" y="313.87" class="st4">addr</text>		</g>
		<g id="shape10-40" transform="translate(366.572,40.7247) rotate(90)">
			<title>Sheet.10</title>
			<path d="M0 318.55 L95.94 318.55" class="st8"/>
		</g>
		<g id="shape11-45" transform="translate(40.9327,-100.46)">
			<title>Rectangle.51</title>
			<desc>Duplicated Register Group 0</desc>
			<rect x="0" y="247.687" width="43.937" height="70.8661" class="st10"/>
			<text x="7.79" y="277.72" class="st11">Duplicated <tspan x="10.8" dy="1.2em" class="st7">Register </tspan><tspan
						x="11.13" dy="1.2em" class="st7">Group </tspan>0</text>		</g>
		<g id="shape12-50" transform="translate(40.9327,-159.279)">
			<title>Rectangle.52</title>
			<desc>conv_enable</desc>
			<rect x="0" y="306.506" width="43.937" height="12.0472" class="st10"/>
			<text x="4.95" y="314.33" class="st11">conv_enable</text>		</g>
		<g id="shape13-53" transform="translate(104.712,-100.46)">
			<title>Rectangle.53</title>
			<desc>Duplicated Register Group 1</desc>
			<rect x="0" y="247.687" width="45.3543" height="70.8661" class="st10"/>
			<text x="8.5" y="277.72" class="st11">Duplicated <tspan x="11.51" dy="1.2em" class="st7">Register </tspan><tspan
						x="11.84" dy="1.2em" class="st7">Group </tspan>1</text>		</g>
		<g id="shape14-58" transform="translate(104.712,-159.279)">
			<title>Rectangle.54</title>
			<desc>conv_enable</desc>
			<rect x="0" y="306.506" width="45.3543" height="12.0472" class="st10"/>
			<text x="5.66" y="314.33" class="st11">conv_enable</text>		</g>
		<g id="shape15-61" transform="translate(175.578,-100.46)">
			<title>Rectangle.55</title>
			<desc>Single Register Group</desc>
			<rect x="0" y="247.687" width="42.5197" height="70.8661" class="st10"/>
			<text x="12.92" y="277.72" class="st11">Single <tspan x="10.09" dy="1.2em" class="st7">Register </tspan><tspan
						x="12.92" dy="1.2em" class="st7">Group</tspan></text>		</g>
		<g id="shape16-66" transform="translate(175.578,-157.153)">
			<title>Rectangle.58</title>
			<desc>producer pointer</desc>
			<rect x="0" y="304.38" width="42.5197" height="14.1732" class="st10"/>
			<text x="9.42" y="309.67" class="st11">producer <tspan x="12.09" dy="1.2em" class="st7">point</tspan>er</text>		</g>
		<g id="shape17-70" transform="translate(67.3658,-171.326)">
			<title>动态连接线.56</title>
			<path d="M9 318.55 L9 300.77" class="st8"/>
		</g>
		<g id="shape18-75" transform="translate(118.389,-171.326)">
			<title>动态连接线.57</title>
			<path d="M9 318.55 L9 300.77" class="st8"/>
		</g>
		<g id="shape19-80" transform="translate(175.578,-100.46)">
			<title>Rectangle.59</title>
			<desc>consumer pointer</desc>
			<rect x="0" y="304.38" width="42.5197" height="14.1732" class="st10"/>
			<text x="8.09" y="309.67" class="st11">consumer <tspan x="12.09" dy="1.2em" class="st7">point</tspan>er</text>		</g>
		<g id="shape20-84" transform="translate(175.578,-164.24)">
			<title>动态连接线.60</title>
			<path d="M0 318.55 L-10.63 318.55 L-10.63 277.45 L-35.86 277.45" class="st8"/>
		</g>
		<g id="shape21-89" transform="translate(97.6257,-228.019)">
			<title>Trapezoid.61</title>
			<desc>mux</desc>
			<path d="M0 318.55 L77.95 318.55 L70.16 304.38 L7.8 304.38 L0 318.55 Z" class="st10"/>
			<text x="31.42" y="313.87" class="st4">mux</text>		</g>
		<g id="shape22-92" transform="translate(147.232,557.905) rotate(180)">
			<title>Trapezoid.62</title>
			<desc>mux</desc>
			<path d="M0 318.55 L106.3 318.55 L95.67 304.38 L10.63 304.38 L0 318.55 Z" class="st10"/>
			<text x="-60.71" y="-309.07" transform="rotate(180)" class="st4">mux</text>		</g>
		<g id="shape23-95" transform="translate(381.454,218.093) rotate(90)">
			<title>Sheet.23</title>
			<path d="M0 318.55 L10.7 318.55" class="st8"/>
		</g>
		<g id="shape24-100" transform="translate(445.942,218.093) rotate(90)">
			<title>Sheet.24</title>
			<path d="M0 318.55 L10.7 318.55" class="st8"/>
		</g>
		<g id="shape25-105" transform="translate(175.578,-107.547)">
			<title>动态连接线.65</title>
			<path d="M0 318.55 L-11.34 318.55 L-11.34 353.99 L-23.1 353.99" class="st8"/>
		</g>
		<g id="shape26-110" transform="translate(414.761,253.526) rotate(90)">
			<title>Sheet.26</title>
			<path d="M0 318.55 L24.87 318.55" class="st8"/>
		</g>
		<g id="shape27-115" transform="translate(96.2083,-58.6493)">
			<title>Sheet.27</title>
			<path d="M90.71 276.74 L90.71 318.55 L0 318.55" class="st12"/>
		</g>
		<g id="shape28-118" transform="translate(205.342,-171.326)">
			<title>动态连接线.68</title>
			<path d="M0 318.55 L0 274.82 L-51.02 274.82 L-51.02 272.42" class="st8"/>
		</g>
		<g id="shape29-123" transform="translate(97.98,-210.515)">
			<title>动态连接线.69</title>
			<path d="M0 318.06 L0 314.01 L20.91 314.01 L20.91 311.61" class="st8"/>
		</g>
		<g id="shape30-128" transform="translate(116.051,-187.413)">
			<title>动态连接线.70</title>
			<path d="M0 320.47 L8.34 320.47 A3 3 0 1 1 14.34 320.47 L45.9 320.47 A3 3 0 1 1 51.9 320.47 L72.28 320.47 L72.28 324.08"
					class="st8"/>
		</g>
		<g id="shape31-133" transform="translate(48.0194,-187.413)">
			<title>动态连接线.71</title>
			<path d="M0 320.47 L25.35 320.47 A3 3 0 1 1 31.35 320.47 L68.03 320.47 L68.03 324.08" class="st8"/>
		</g>
		<g id="shape32-138" transform="translate(48.0194,-258.279)">
			<title>动态连接线.72</title>
			<path d="M0 320.47 L20.98 320.47 L20.98 324.08" class="st8"/>
		</g>
		<g id="shape33-143" transform="translate(82.8855,-235.106)">
			<title>Sheet.33</title>
			<path d="M0 318.55 L8.08 318.55" class="st8"/>
		</g>
	</g>
</svg>
