<?xml version="1.0" encoding="UTF-8" standalone="no"?>
<!DOCTYPE svg PUBLIC "-//W3C//DTD SVG 1.1//EN" "http://www.w3.org/Graphics/SVG/1.1/DTD/svg11.dtd">
<!-- Generated by Microsoft Visio, SVG Export nvdla-primer-system-comparison.svg NVDLA system comparison -->
<svg xmlns="http://www.w3.org/2000/svg" xmlns:xlink="http://www.w3.org/1999/xlink" xmlns:ev="http://www.w3.org/2001/xml-events"
		width="8.51042in" height="6.50333in" viewBox="0 0 612.75 468.24" xml:space="preserve" color-interpolation-filters="sRGB"
		class="st15">
	<style type="text/css">
	<![CDATA[
		.st1 {fill:#f2dcda;stroke:#000000;stroke-linecap:round;stroke-linejoin:round;stroke-width:0.24}
		.st2 {fill:#000000;font-family:Arial;font-size:0.833336em}
		.st3 {fill:#e5b9b5;stroke:#000000;stroke-linecap:round;stroke-linejoin:round;stroke-width:0.24}
		.st4 {marker-end:url(#mrkr13-21);stroke:#000000;stroke-linecap:round;stroke-linejoin:round;stroke-width:0.25}
		.st5 {fill:#000000;fill-opacity:1;stroke:#000000;stroke-opacity:1;stroke-width:0.090252707581227}
		.st6 {fill:#ffffff}
		.st7 {stroke:#000000;stroke-linecap:round;stroke-linejoin:round;stroke-width:0.24}
		.st8 {fill:#ebf1df;stroke:#000000;stroke-linecap:round;stroke-linejoin:round;stroke-width:0.24}
		.st9 {fill:#000000;font-family:Arial;font-size:0.75em}
		.st10 {font-size:1em}
		.st11 {stroke:#ff0000;stroke-dasharray:2.25,4.5;stroke-linecap:round;stroke-linejoin:round;stroke-width:2.25}
		.st12 {stroke:#000000;stroke-dasharray:3.6,2.16;stroke-linecap:round;stroke-linejoin:round;stroke-width:0.24}
		.st13 {fill:none;stroke:none;stroke-linecap:round;stroke-linejoin:round;stroke-width:0.75}
		.st14 {fill:#000000;font-family:Arial;font-size:0.833336em;font-weight:bold}
		.st15 {fill:none;fill-rule:evenodd;font-size:12px;overflow:visible;stroke-linecap:square;stroke-miterlimit:3}
	]]>
	</style>

	<defs id="Markers">
		<g id="lend13">
			<path d="M 3 1 L 0 0 L 3 -1 L 3 1 " style="stroke:none"/>
		</g>
		<marker id="mrkr13-21" class="st5" refX="-33.24" orient="auto" markerUnits="strokeWidth" overflow="visible">
			<use xlink:href="#lend13" transform="scale(-11.08,-11.08) "/>
		</marker>
	</defs>
	<g>
		<title>System comparison</title>
		<g id="shape1-1" transform="translate(18.375,-126.12)">
			<title>Rectangle.17</title>
			<desc>NVDLA</desc>
			<rect x="0" y="324.24" width="180" height="144" class="st1"/>
			<text x="73.33" y="399.24" class="st2">NVDLA</text>		</g>
		<g id="shape2-4" transform="translate(126.375,-234.12)">
			<title>Rectangle.2</title>
			<desc>CSB</desc>
			<rect x="0" y="432.24" width="36" height="36" class="st3"/>
			<text x="7.72" y="453.24" class="st2">CSB</text>		</g>
		<g id="shape3-7" transform="translate(54.375,-234.12)">
			<title>Rectangle.3</title>
			<desc>IRQ</desc>
			<rect x="0" y="432.24" width="36" height="36" class="st3"/>
			<text x="9.11" y="453.24" class="st2">IRQ</text>		</g>
		<g id="shape4-10" transform="translate(36.375,-126.12)">
			<title>Rectangle.4</title>
			<desc>SRAMIF</desc>
			<rect x="0" y="432.24" width="54" height="36" class="st3"/>
			<text x="8.11" y="453.24" class="st2">SRAMIF</text>		</g>
		<g id="shape5-13" transform="translate(126.375,-126.12)">
			<title>Rectangle.5</title>
			<desc>DBBIF</desc>
			<rect x="0" y="432.24" width="54" height="36" class="st3"/>
			<text x="12.28" y="453.24" class="st2">DBBIF</text>		</g>
		<g id="shape6-16" transform="translate(63.375,-270.12)">
			<title>Dynamic connector.9</title>
			<path d="M9 468.24 L9 440.55" class="st4"/>
		</g>
		<g id="shape7-22" transform="translate(-314.865,162.12) rotate(-90) scale(-1,1)">
			<title>Straight bus.48</title>
			<path d="M27 453.84 L9 453.84 L9 450.24 L0 459.24 L9 468.24 L9 464.64 L27 464.64 L27 453.84 Z" class="st6"/>
			<path d="M27 453.84 L9 453.84 L9 450.24 L0 459.24 L9 468.24 L9 464.64 L27 464.64" class="st7"/>
		</g>
		<g id="shape8-25" transform="translate(603.615,198.12) rotate(90) scale(-1,1)">
			<title>Straight bus.8</title>
			<path d="M27 453.84 L9 453.84 L9 450.24 L0 459.24 L9 468.24 L9 464.64 L27 464.64 L27 453.84 Z" class="st6"/>
			<path d="M27 453.84 L9 453.84 L9 450.24 L0 459.24 L9 468.24 L9 464.64 L27 464.64" class="st7"/>
		</g>
		<g id="shape9-28" transform="translate(18.375,-306.12)">
			<title>Rectangle.9</title>
			<desc>CPU</desc>
			<rect x="0" y="432.24" width="180" height="36" class="st8"/>
			<text x="79.44" y="453.24" class="st2">CPU</text>		</g>
		<g id="shape12-31" transform="translate(234.375,-72.12)">
			<title>Rectangle.12</title>
			<desc>Sys DRAM</desc>
			<rect x="0" y="198.24" width="36" height="270" class="st8"/>
			<text x="10.5" y="330.54" class="st9">Sys <tspan x="4.75" dy="1.2em" class="st10">DRAM</tspan></text>		</g>
		<g id="shape13-35" transform="translate(234.375,-315.12) scale(-1,1)">
			<title>Straight bus.13</title>
			<path d="M27 453.84 L9 453.84 L9 450.24 L0 459.24 L9 468.24 L9 464.64 L27 464.64 L27 453.84 Z" class="st6"/>
			<path d="M27 453.84 L9 453.84 L9 450.24 L0 459.24 L9 468.24 L9 464.64 L27 464.64" class="st7"/>
		</g>
		<g id="shape14-38" transform="translate(198.375,603.36) scale(1,-1)">
			<title>Straight bus.14</title>
			<path d="M27 453.84 L9 453.84 L9 450.24 L0 459.24 L9 468.24 L9 464.64 L27 464.64 L27 453.84 Z" class="st6"/>
			<path d="M27 453.84 L9 453.84 L9 450.24 L0 459.24 L9 468.24 L9 464.64 L27 464.64" class="st7"/>
		</g>
		<g id="shape15-41" transform="translate(153.407,-108.113)">
			<title>Elbow bus 2.50</title>
			<path d="M5.4 468.24 L5.4 480.83 L71.97 480.83 L71.97 477.23 L80.97 486.23 L71.97 495.23 L71.97 491.63 L-5.4 491.63 L-5.4
						 468.24 L5.4 468.24 Z" class="st6"/>
			<path d="M5.4 468.24 L5.4 480.83 L71.97 480.83 L71.97 477.23 L80.97 486.23 L71.97 495.23 L71.97 491.63 L-5.4 491.63 L-5.4
						 468.24" class="st7"/>
		</g>
		<g id="shape16-44" transform="translate(-305.865,342.12) rotate(-90) scale(-1,1)">
			<title>Straight bus.16</title>
			<path d="M27 453.84 L9 453.84 L9 450.24 L0 459.24 L9 468.24 L9 464.64 L27 464.64 L27 453.84 Z" class="st6"/>
			<path d="M27 453.84 L9 453.84 L9 450.24 L0 459.24 L9 468.24 L9 464.64 L27 464.64" class="st7"/>
		</g>
		<g id="shape17-47" transform="translate(342.375,-126.12)">
			<title>Rectangle.1</title>
			<desc>NVDLA</desc>
			<rect x="0" y="324.24" width="180" height="144" class="st1"/>
			<text x="73.33" y="399.24" class="st2">NVDLA</text>		</g>
		<g id="shape18-50" transform="translate(450.375,-234.12)">
			<title>Rectangle.18</title>
			<desc>CSB</desc>
			<rect x="0" y="432.24" width="36" height="36" class="st3"/>
			<text x="7.72" y="453.24" class="st2">CSB</text>		</g>
		<g id="shape19-53" transform="translate(378.375,-234.12)">
			<title>Rectangle.19</title>
			<desc>IRQ</desc>
			<rect x="0" y="432.24" width="36" height="36" class="st3"/>
			<text x="9.11" y="453.24" class="st2">IRQ</text>		</g>
		<g id="shape20-56" transform="translate(360.375,-126.12)">
			<title>Rectangle.20</title>
			<desc>SRAMIF</desc>
			<rect x="0" y="432.24" width="54" height="36" class="st3"/>
			<text x="8.11" y="453.24" class="st2">SRAMIF</text>		</g>
		<g id="shape21-59" transform="translate(450.375,-126.12)">
			<title>Rectangle.21</title>
			<desc>DBBIF</desc>
			<rect x="0" y="432.24" width="54" height="36" class="st3"/>
			<text x="12.28" y="453.24" class="st2">DBBIF</text>		</g>
		<g id="shape22-62" transform="translate(387.375,-270.12)">
			<title>Dynamic connector.22</title>
			<path d="M9 468.24 L9 440.55" class="st4"/>
		</g>
		<g id="shape23-67" transform="translate(9.135,162.12) rotate(-90) scale(-1,1)">
			<title>Straight bus.23</title>
			<path d="M27 453.84 L9 453.84 L9 450.24 L0 459.24 L9 468.24 L9 464.64 L27 464.64 L27 453.84 Z" class="st6"/>
			<path d="M27 453.84 L9 453.84 L9 450.24 L0 459.24 L9 468.24 L9 464.64 L27 464.64" class="st7"/>
		</g>
		<g id="shape24-70" transform="translate(927.615,198.12) rotate(90) scale(-1,1)">
			<title>Straight bus.24</title>
			<path d="M27 453.84 L9 453.84 L9 450.24 L0 459.24 L9 468.24 L9 464.64 L27 464.64 L27 453.84 Z" class="st6"/>
			<path d="M27 453.84 L9 453.84 L9 450.24 L0 459.24 L9 468.24 L9 464.64 L27 464.64" class="st7"/>
		</g>
		<g id="shape25-73" transform="translate(342.375,-378.12)">
			<title>Rectangle.25</title>
			<desc>CPU</desc>
			<rect x="0" y="432.24" width="180" height="36" class="st8"/>
			<text x="79.44" y="453.24" class="st2">CPU</text>		</g>
		<g id="shape26-76" transform="translate(558.375,-54.12)">
			<title>Rectangle.26</title>
			<desc>Sys DRAM</desc>
			<rect x="0" y="108.24" width="36" height="360" class="st8"/>
			<text x="10.5" y="285.54" class="st9">Sys <tspan x="4.75" dy="1.2em" class="st10">DRAM</tspan></text>		</g>
		<g id="shape27-80" transform="translate(558.375,-387.12) scale(-1,1)">
			<title>Straight bus.27</title>
			<path d="M27 453.84 L9 453.84 L9 450.24 L0 459.24 L9 468.24 L9 464.64 L27 464.64 L27 453.84 Z" class="st6"/>
			<path d="M27 453.84 L9 453.84 L9 450.24 L0 459.24 L9 468.24 L9 464.64 L27 464.64" class="st7"/>
		</g>
		<g id="shape28-83" transform="translate(522.375,531.36) scale(1,-1)">
			<title>Straight bus.28</title>
			<path d="M27 453.84 L9 453.84 L9 450.24 L0 459.24 L9 468.24 L9 464.64 L27 464.64 L27 453.84 Z" class="st6"/>
			<path d="M27 453.84 L9 453.84 L9 450.24 L0 459.24 L9 468.24 L9 464.64 L27 464.64" class="st7"/>
		</g>
		<g id="shape29-86" transform="translate(477.375,-108.12)">
			<title>Elbow bus 2.29</title>
			<path d="M5.4 468.24 L5.4 480.84 L72 480.84 L72 477.24 L81 486.24 L72 495.24 L72 491.64 L-5.4 491.64 L-5.4 468.24 L5.4
						 468.24 Z" class="st6"/>
			<path d="M5.4 468.24 L5.4 480.84 L72 480.84 L72 477.24 L81 486.24 L72 495.24 L72 491.64 L-5.4 491.64 L-5.4 468.24"
					class="st7"/>
		</g>
		<g id="shape30-89" transform="translate(18.135,342.12) rotate(-90) scale(-1,1)">
			<title>Straight bus.30</title>
			<path d="M27 453.84 L9 453.84 L9 450.24 L0 459.24 L9 468.24 L9 464.64 L27 464.64 L27 453.84 Z" class="st6"/>
			<path d="M27 453.84 L9 453.84 L9 450.24 L0 459.24 L9 468.24 L9 464.64 L27 464.64" class="st7"/>
		</g>
		<g id="shape31-92" transform="translate(360.375,-306.12)">
			<title>Rectangle.31</title>
			<desc>Microcontroller</desc>
			<rect x="0" y="432.24" width="144" height="36" class="st8"/>
			<text x="39.21" y="453.24" class="st2">Microcontroller</text>		</g>
		<g id="shape32-95" transform="translate(-26.865,90.12) rotate(-90) scale(-1,1)">
			<title>Straight bus.18</title>
			<path d="M27 453.84 L9 453.84 L9 450.24 L0 459.24 L9 468.24 L9 464.64 L27 464.64 L27 453.84 Z" class="st6"/>
			<path d="M27 453.84 L9 453.84 L9 450.24 L0 459.24 L9 468.24 L9 464.64 L27 464.64" class="st7"/>
		</g>
		<g id="shape33-98" transform="translate(891.615,126.12) rotate(90) scale(-1,1)">
			<title>Straight bus.19</title>
			<path d="M27 453.84 L9 453.84 L9 450.24 L0 459.24 L9 468.24 L9 464.64 L27 464.64 L27 453.84 Z" class="st6"/>
			<path d="M27 453.84 L9 453.84 L9 450.24 L0 459.24 L9 468.24 L9 464.64 L27 464.64" class="st7"/>
		</g>
		<g id="shape34-101" transform="translate(342.375,-54.12)">
			<title>Rectangle.34</title>
			<desc>SRAM</desc>
			<rect x="0" y="432.24" width="90" height="36" class="st8"/>
			<text x="30.55" y="453.24" class="st2">SRAM</text>		</g>
		<g id="shape35-104" transform="translate(-71.865,342.12) rotate(-90) scale(-1,1)">
			<title>Straight bus.21</title>
			<path d="M27 453.84 L9 453.84 L9 450.24 L0 459.24 L9 468.24 L9 464.64 L27 464.64 L27 453.84 Z" class="st6"/>
			<path d="M27 453.84 L9 453.84 L9 450.24 L0 459.24 L9 468.24 L9 464.64 L27 464.64" class="st7"/>
		</g>
		<g id="shape36-107" transform="translate(846.615,378.12) rotate(90) scale(-1,1)">
			<title>Straight bus.22</title>
			<path d="M27 453.84 L9 453.84 L9 450.24 L0 459.24 L9 468.24 L9 464.64 L27 464.64 L27 453.84 Z" class="st6"/>
			<path d="M27 453.84 L9 453.84 L9 450.24 L0 459.24 L9 468.24 L9 464.64 L27 464.64" class="st7"/>
		</g>
		<g id="shape37-110" transform="translate(-223.358,-47.4792) rotate(-33.6901)">
			<title>Sheet.37</title>
			<path d="M0 468.24 L64.9 468.24" class="st11"/>
		</g>
		<g id="shape38-113" transform="translate(774.615,18.12) rotate(90)">
			<title>Sheet.38</title>
			<path d="M0 468.24 L432 468.24" class="st12"/>
		</g>
		<g id="shape39-116" transform="translate(18.375,-27.12)">
			<title>Sheet.39</title>
			<desc>“Small” NVDLA system</desc>
			<rect x="0" y="450.24" width="252" height="18" class="st13"/>
			<text x="70.43" y="462.24" class="st14">“Small” NVDLA system</text>		</g>
		<g id="shape40-119" transform="translate(342.375,-27.12)">
			<title>Sheet.40</title>
			<desc>“Large” NVDLA system</desc>
			<rect x="0" y="450.24" width="252" height="18" class="st13"/>
			<text x="70.15" y="462.24" class="st14">“Large” NVDLA system</text>		</g>
	</g>
</svg>
