<?xml version="1.0" encoding="UTF-8" standalone="no"?>
<!DOCTYPE svg PUBLIC "-//W3C//DTD SVG 1.1//EN" "http://www.w3.org/Graphics/SVG/1.1/DTD/svg11.dtd">
<!-- Generated by Microsoft Visio, SVG Export nvdla-hwarch-csb-timing.svg CSB timing -->
<svg xmlns="http://www.w3.org/2000/svg" xmlns:xlink="http://www.w3.org/1999/xlink" xmlns:ev="http://www.w3.org/2001/xml-events"
		width="4.97917in" height="3.18661in" viewBox="0 0 358.5 229.436" xml:space="preserve" color-interpolation-filters="sRGB"
		class="st7">
	<style type="text/css">
	<![CDATA[
		.st1 {fill:none;stroke:none;stroke-linecap:round;stroke-linejoin:round;stroke-width:0.75}
		.st2 {fill:#000000;font-family:Arial;font-size:0.499992em}
		.st3 {marker-end:url(#mrkr5-24);stroke:#000000;stroke-dasharray:1.75,1.25;stroke-linecap:round;stroke-linejoin:round;stroke-width:0.25}
		.st4 {fill:#000000;fill-opacity:1;stroke:#000000;stroke-opacity:1;stroke-width:0.090252707581227}
		.st5 {stroke:#000000;stroke-linecap:round;stroke-linejoin:round;stroke-width:0.75}
		.st6 {stroke:#000000;stroke-dasharray:2.25,2.25;stroke-linecap:round;stroke-linejoin:round;stroke-width:0.75}
		.st7 {fill:none;fill-rule:evenodd;font-size:12px;overflow:visible;stroke-linecap:square;stroke-miterlimit:3}
	]]>
	</style>

	<defs id="Markers">
		<g id="lend5">
			<path d="M 2 1 L 0 0 L 1.98117 -0.993387 C 1.67173 -0.364515 1.67301 0.372641 1.98465 1.00043 " style="stroke:none"/>
		</g>
		<marker id="mrkr5-24" class="st4" refX="-17.95" orient="auto" markerUnits="strokeWidth" overflow="visible">
			<use xlink:href="#lend5" transform="scale(-11.08,-11.08) "/>
		</marker>
	</defs>
	<g>
		<title>CSB timing</title>
		<g id="shape77-1" transform="translate(74.0625,-191.061)">
			<title>Sheet.77</title>
			<desc>clk</desc>
			<rect x="0" y="209.436" width="24.75" height="20" class="st1"/>
			<text x="13.42" y="221.24" class="st2">clk</text>		</g>
		<g id="shape78-4" transform="translate(29.625,-171.873)">
			<title>Sheet.78</title>
			<desc>csb2nvdla_valid</desc>
			<rect x="0" y="209.436" width="69.1875" height="20" class="st1"/>
			<text x="22.49" y="221.24" class="st2">csb2nvdla_valid</text>		</g>
		<g id="shape79-7" transform="translate(29.625,-152.686)">
			<title>Sheet.79</title>
			<desc>csb2nvdla_ready</desc>
			<rect x="0" y="209.436" width="69.1875" height="20" class="st1"/>
			<text x="19.82" y="221.24" class="st2">csb2nvdla_ready</text>		</g>
		<g id="shape80-10" transform="translate(18.375,-133.499)">
			<title>Sheet.80</title>
			<desc>csb2nvdla_pd.nposted</desc>
			<rect x="0" y="209.436" width="80.4375" height="20" class="st1"/>
			<text x="16.39" y="221.24" class="st2">csb2nvdla_pd.nposted</text>		</g>
		<g id="shape81-13" transform="translate(29.625,-114.312)">
			<title>Sheet.81</title>
			<desc>csb2nvdla_pd.write</desc>
			<rect x="0" y="209.436" width="69.1875" height="20" class="st1"/>
			<text x="13.83" y="221.24" class="st2">csb2nvdla_pd.write</text>		</g>
		<g id="shape82-16" transform="translate(29.625,-95.1242)">
			<title>Sheet.82</title>
			<desc>csb2nvdla_pd.wdat</desc>
			<rect x="0" y="209.436" width="69.1875" height="20" class="st1"/>
			<text x="13.82" y="221.24" class="st2">csb2nvdla_pd.wdat</text>		</g>
		<g id="shape88-19" transform="translate(339.493,10.3499) rotate(70.56)">
			<title>Sheet.88</title>
			<path d="M0 212.08 A50.8696 43.7597 -180 0 0 77.73 215.55 L77.99 215.29" class="st3"/>
		</g>
		<g id="shape89-25" transform="translate(18.375,-56.7496)">
			<title>Sheet.89</title>
			<desc>nvdla2csb_wr_complete</desc>
			<rect x="0" y="209.436" width="80.4375" height="20" class="st1"/>
			<text x="12.07" y="221.24" class="st2">nvdla2csb_wr_complete</text>		</g>
		<g id="shape128-28" transform="translate(417.419,2.49223) rotate(78.4557)">
			<title>Sheet.128</title>
			<path d="M0 212.08 A85.4279 43.7597 -180 0 0 132.13 214.66 L132.43 214.46" class="st3"/>
		</g>
		<g id="shape129-33" transform="translate(471.419,2.49223) rotate(78.4557)">
			<title>Sheet.129</title>
			<path d="M0 212.08 A84.5989 43.7597 -180 0 0 130.82 214.67 L131.12 214.48" class="st3"/>
		</g>
		<g id="shape130-38" transform="translate(29.625,-37.5623)">
			<title>Sheet.130</title>
			<desc>nvdla2csb_valid</desc>
			<rect x="0" y="209.436" width="69.1875" height="20" class="st1"/>
			<text x="22.49" y="221.24" class="st2">nvdla2csb_valid</text>		</g>
		<g id="shape131-41" transform="translate(29.625,-18.375)">
			<title>Sheet.131</title>
			<desc>nvdla2csb_pd</desc>
			<rect x="0" y="209.436" width="69.1875" height="20" class="st1"/>
			<text x="28.16" y="221.24" class="st2">nvdla2csb_pd</text>		</g>
		<g id="shape159-44" transform="translate(29.625,-75.9369)">
			<title>Sheet.159</title>
			<desc>csb2nvdla_pd.addr</desc>
			<rect x="0" y="209.436" width="69.1875" height="20" class="st1"/>
			<text x="14.48" y="221.24" class="st2">csb2nvdla_pd.addr</text>		</g>
		<g id="group172-47" transform="translate(101.625,-196.561)">
			<title>Sheet.172</title>
			<g id="group1-48">
				<title>Sheet.1</title>
				<g id="shape2-49">
					<title>Sheet.2</title>
					<path d="M0 229.44 L9 229.44" class="st5"/>
				</g>
				<g id="shape3-52" transform="translate(-220.436,229.436) rotate(-90)">
					<title>Sheet.3</title>
					<path d="M0 229.44 L9 229.44" class="st5"/>
				</g>
				<g id="shape4-55" transform="translate(9,-9)">
					<title>Sheet.4</title>
					<path d="M0 229.44 L9 229.44" class="st5"/>
				</g>
				<g id="shape5-58" transform="translate(-211.436,229.436) rotate(-90)">
					<title>Sheet.5</title>
					<path d="M0 229.44 L9 229.44" class="st5"/>
				</g>
			</g>
			<g id="group6-61">
				<title>Sheet.6</title>
				<g id="shape7-62">
					<title>Sheet.7</title>
					<path d="M0 229.44 L9 229.44" class="st5"/>
				</g>
				<g id="shape8-65" transform="translate(-220.436,229.436) rotate(-90)">
					<title>Sheet.8</title>
					<path d="M0 229.44 L9 229.44" class="st5"/>
				</g>
				<g id="shape9-68" transform="translate(9,-9)">
					<title>Sheet.9</title>
					<path d="M0 229.44 L9 229.44" class="st5"/>
				</g>
				<g id="shape10-71" transform="translate(-211.436,229.436) rotate(-90)">
					<title>Sheet.10</title>
					<path d="M0 229.44 L9 229.44" class="st5"/>
				</g>
			</g>
			<g id="group11-74" transform="translate(18,2.84217E-014)">
				<title>Sheet.11</title>
				<g id="shape12-75">
					<title>Sheet.12</title>
					<path d="M0 229.44 L9 229.44" class="st5"/>
				</g>
				<g id="shape13-78" transform="translate(-220.436,229.436) rotate(-90)">
					<title>Sheet.13</title>
					<path d="M0 229.44 L9 229.44" class="st5"/>
				</g>
				<g id="shape14-81" transform="translate(9,-9)">
					<title>Sheet.14</title>
					<path d="M0 229.44 L9 229.44" class="st5"/>
				</g>
				<g id="shape15-84" transform="translate(-211.436,229.436) rotate(-90)">
					<title>Sheet.15</title>
					<path d="M0 229.44 L9 229.44" class="st5"/>
				</g>
			</g>
			<g id="group16-87" transform="translate(36,2.84217E-014)">
				<title>Sheet.16</title>
				<g id="shape17-88">
					<title>Sheet.17</title>
					<path d="M0 229.44 L9 229.44" class="st5"/>
				</g>
				<g id="shape18-91" transform="translate(-220.436,229.436) rotate(-90)">
					<title>Sheet.18</title>
					<path d="M0 229.44 L9 229.44" class="st5"/>
				</g>
				<g id="shape19-94" transform="translate(9,-9)">
					<title>Sheet.19</title>
					<path d="M0 229.44 L9 229.44" class="st5"/>
				</g>
				<g id="shape20-97" transform="translate(-211.436,229.436) rotate(-90)">
					<title>Sheet.20</title>
					<path d="M0 229.44 L9 229.44" class="st5"/>
				</g>
			</g>
			<g id="group21-100" transform="translate(54,2.84217E-014)">
				<title>Sheet.21</title>
				<g id="shape22-101">
					<title>Sheet.22</title>
					<path d="M0 229.44 L9 229.44" class="st5"/>
				</g>
				<g id="shape23-104" transform="translate(-220.436,229.436) rotate(-90)">
					<title>Sheet.23</title>
					<path d="M0 229.44 L9 229.44" class="st5"/>
				</g>
				<g id="shape24-107" transform="translate(9,-9)">
					<title>Sheet.24</title>
					<path d="M0 229.44 L9 229.44" class="st5"/>
				</g>
				<g id="shape25-110" transform="translate(-211.436,229.436) rotate(-90)">
					<title>Sheet.25</title>
					<path d="M0 229.44 L9 229.44" class="st5"/>
				</g>
			</g>
			<g id="group26-113" transform="translate(72,2.84217E-014)">
				<title>Sheet.26</title>
				<g id="shape27-114">
					<title>Sheet.27</title>
					<path d="M0 229.44 L9 229.44" class="st5"/>
				</g>
				<g id="shape28-117" transform="translate(-220.436,229.436) rotate(-90)">
					<title>Sheet.28</title>
					<path d="M0 229.44 L9 229.44" class="st5"/>
				</g>
				<g id="shape29-120" transform="translate(9,-9)">
					<title>Sheet.29</title>
					<path d="M0 229.44 L9 229.44" class="st5"/>
				</g>
				<g id="shape30-123" transform="translate(-211.436,229.436) rotate(-90)">
					<title>Sheet.30</title>
					<path d="M0 229.44 L9 229.44" class="st5"/>
				</g>
			</g>
			<g id="group31-126" transform="translate(90,2.84217E-014)">
				<title>Sheet.31</title>
				<g id="shape32-127">
					<title>Sheet.32</title>
					<path d="M0 229.44 L9 229.44" class="st5"/>
				</g>
				<g id="shape33-130" transform="translate(-220.436,229.436) rotate(-90)">
					<title>Sheet.33</title>
					<path d="M0 229.44 L9 229.44" class="st5"/>
				</g>
				<g id="shape34-133" transform="translate(9,-9)">
					<title>Sheet.34</title>
					<path d="M0 229.44 L9 229.44" class="st5"/>
				</g>
				<g id="shape35-136" transform="translate(-211.436,229.436) rotate(-90)">
					<title>Sheet.35</title>
					<path d="M0 229.44 L9 229.44" class="st5"/>
				</g>
			</g>
			<g id="group39-139" transform="translate(126,2.84217E-014)">
				<title>Sheet.39</title>
				<g id="shape40-140">
					<title>Sheet.40</title>
					<path d="M0 229.44 L9 229.44" class="st5"/>
				</g>
				<g id="shape41-143" transform="translate(-220.436,229.436) rotate(-90)">
					<title>Sheet.41</title>
					<path d="M0 229.44 L9 229.44" class="st5"/>
				</g>
				<g id="shape42-146" transform="translate(9,-9)">
					<title>Sheet.42</title>
					<path d="M0 229.44 L9 229.44" class="st5"/>
				</g>
				<g id="shape43-149" transform="translate(-211.436,229.436) rotate(-90)">
					<title>Sheet.43</title>
					<path d="M0 229.44 L9 229.44" class="st5"/>
				</g>
			</g>
			<g id="group44-152" transform="translate(108,2.84217E-014)">
				<title>Sheet.44</title>
				<g id="shape45-153">
					<title>Sheet.45</title>
					<path d="M0 229.44 L9 229.44" class="st5"/>
				</g>
				<g id="shape46-156" transform="translate(-220.436,229.436) rotate(-90)">
					<title>Sheet.46</title>
					<path d="M0 229.44 L9 229.44" class="st5"/>
				</g>
				<g id="shape47-159" transform="translate(9,-9)">
					<title>Sheet.47</title>
					<path d="M0 229.44 L9 229.44" class="st5"/>
				</g>
				<g id="shape48-162" transform="translate(-211.436,229.436) rotate(-90)">
					<title>Sheet.48</title>
					<path d="M0 229.44 L9 229.44" class="st5"/>
				</g>
			</g>
			<g id="group49-165" transform="translate(144,2.84217E-014)">
				<title>Sheet.49</title>
				<g id="shape50-166">
					<title>Sheet.50</title>
					<path d="M0 229.44 L9 229.44" class="st5"/>
				</g>
				<g id="shape51-169" transform="translate(-220.436,229.436) rotate(-90)">
					<title>Sheet.51</title>
					<path d="M0 229.44 L9 229.44" class="st5"/>
				</g>
				<g id="shape52-172" transform="translate(9,-9)">
					<title>Sheet.52</title>
					<path d="M0 229.44 L9 229.44" class="st5"/>
				</g>
				<g id="shape53-175" transform="translate(-211.436,229.436) rotate(-90)">
					<title>Sheet.53</title>
					<path d="M0 229.44 L9 229.44" class="st5"/>
				</g>
			</g>
			<g id="group54-178" transform="translate(162,2.84217E-014)">
				<title>Sheet.54</title>
				<g id="shape55-179">
					<title>Sheet.55</title>
					<path d="M0 229.44 L9 229.44" class="st5"/>
				</g>
				<g id="shape56-182" transform="translate(-220.436,229.436) rotate(-90)">
					<title>Sheet.56</title>
					<path d="M0 229.44 L9 229.44" class="st5"/>
				</g>
				<g id="shape57-185" transform="translate(9,-9)">
					<title>Sheet.57</title>
					<path d="M0 229.44 L9 229.44" class="st5"/>
				</g>
				<g id="shape58-188" transform="translate(-211.436,229.436) rotate(-90)">
					<title>Sheet.58</title>
					<path d="M0 229.44 L9 229.44" class="st5"/>
				</g>
			</g>
			<g id="group59-191" transform="translate(180,2.84217E-014)">
				<title>Sheet.59</title>
				<g id="shape60-192">
					<title>Sheet.60</title>
					<path d="M0 229.44 L9 229.44" class="st5"/>
				</g>
				<g id="shape61-195" transform="translate(-220.436,229.436) rotate(-90)">
					<title>Sheet.61</title>
					<path d="M0 229.44 L9 229.44" class="st5"/>
				</g>
				<g id="shape62-198" transform="translate(9,-9)">
					<title>Sheet.62</title>
					<path d="M0 229.44 L9 229.44" class="st5"/>
				</g>
				<g id="shape63-201" transform="translate(-211.436,229.436) rotate(-90)">
					<title>Sheet.63</title>
					<path d="M0 229.44 L9 229.44" class="st5"/>
				</g>
			</g>
			<g id="group96-204" transform="translate(198,2.84217E-014)">
				<title>Sheet.96</title>
				<g id="shape97-205">
					<title>Sheet.97</title>
					<path d="M0 229.44 L9 229.44" class="st5"/>
				</g>
				<g id="shape98-208" transform="translate(-220.436,229.436) rotate(-90)">
					<title>Sheet.98</title>
					<path d="M0 229.44 L9 229.44" class="st5"/>
				</g>
				<g id="shape99-211" transform="translate(9,-9)">
					<title>Sheet.99</title>
					<path d="M0 229.44 L9 229.44" class="st5"/>
				</g>
				<g id="shape100-214" transform="translate(-211.436,229.436) rotate(-90)">
					<title>Sheet.100</title>
					<path d="M0 229.44 L9 229.44" class="st5"/>
				</g>
			</g>
			<g id="group101-217" transform="translate(216,2.84217E-014)">
				<title>Sheet.101</title>
				<g id="shape102-218">
					<title>Sheet.102</title>
					<path d="M0 229.44 L9 229.44" class="st5"/>
				</g>
				<g id="shape103-221" transform="translate(-220.436,229.436) rotate(-90)">
					<title>Sheet.103</title>
					<path d="M0 229.44 L9 229.44" class="st5"/>
				</g>
				<g id="shape104-224" transform="translate(9,-9)">
					<title>Sheet.104</title>
					<path d="M0 229.44 L9 229.44" class="st5"/>
				</g>
				<g id="shape105-227" transform="translate(-211.436,229.436) rotate(-90)">
					<title>Sheet.105</title>
					<path d="M0 229.44 L9 229.44" class="st5"/>
				</g>
			</g>
		</g>
		<g id="group173-230" transform="translate(101.625,-177.373)">
			<title>Sheet.173</title>
			<g id="shape36-231">
				<title>Sheet.36</title>
				<path d="M0 229.44 L9 229.44 L9 220.44 L45 220.44 L45 229.44 L81 229.44 L81 220.44 L108 220.44" class="st5"/>
			</g>
			<g id="shape64-234" transform="translate(108,-9)">
				<title>Sheet.64</title>
				<path d="M0 229.44 L9 229.44" class="st5"/>
			</g>
			<g id="shape65-237" transform="translate(117,2.84217E-014)">
				<title>Sheet.65</title>
				<path d="M0 220.44 L0 229.44 L36 229.44" class="st5"/>
			</g>
			<g id="shape66-240" transform="translate(153,2.84217E-014)">
				<title>Sheet.66</title>
				<path d="M0 229.44 L0 220.44 L18 220.44 L18 229.44 L45 229.44" class="st5"/>
			</g>
			<g id="shape106-243" transform="translate(198,2.84217E-014)">
				<title>Sheet.106</title>
				<path d="M0 229.44 L40.5 229.44" class="st5"/>
			</g>
		</g>
		<g id="group174-246" transform="translate(101.625,-158.186)">
			<title>Sheet.174</title>
			<g id="shape37-247">
				<title>Sheet.37</title>
				<path d="M0 220.44 L45 220.44 L45 229.44 L99 229.44" class="st5"/>
			</g>
			<g id="shape38-250" transform="translate(99,2.84217E-014)">
				<title>Sheet.38</title>
				<path d="M0 229.44 L0 220.44 L11.25 220.44" class="st5"/>
			</g>
			<g id="shape67-253" transform="translate(110.25,-9)">
				<title>Sheet.67</title>
				<path d="M0 229.44 L87.75 229.44" class="st5"/>
			</g>
			<g id="shape107-256" transform="translate(198,-9)">
				<title>Sheet.107</title>
				<path d="M0 229.44 L40.5 229.44" class="st5"/>
			</g>
		</g>
		<g id="group175-259" transform="translate(101.625,-138.999)">
			<title>Sheet.175</title>
			<g id="shape68-260">
				<title>Sheet.68</title>
				<path d="M0 229.44 L27 229.44 L27 220.44 L45 220.44 L45 229.44 L198 229.44" class="st5"/>
			</g>
			<g id="shape108-263" transform="translate(198,2.84217E-014)">
				<title>Sheet.108</title>
				<path d="M0 229.44 L40.5 229.44" class="st5"/>
			</g>
		</g>
		<g id="group176-266" transform="translate(101.625,-119.812)">
			<title>Sheet.176</title>
			<g id="shape69-267">
				<title>Sheet.69</title>
				<path d="M0 220.44 L45 220.44 L45 229.44 L198 229.44" class="st5"/>
			</g>
			<g id="shape109-270" transform="translate(198,2.84217E-014)">
				<title>Sheet.109</title>
				<path d="M0 229.44 L32.4 229.44 L40.5 229.44" class="st5"/>
			</g>
		</g>
		<g id="group177-273" transform="translate(101.625,-100.624)">
			<title>Sheet.177</title>
			<g id="shape70-274" transform="translate(10.125,-9)">
				<title>Sheet.70</title>
				<path d="M0 229.44 L15.75 229.44" class="st5"/>
			</g>
			<g id="shape71-277" transform="translate(10.125,2.84217E-014)">
				<title>Sheet.71</title>
				<path d="M0 229.44 L15.75 229.44" class="st5"/>
			</g>
			<g id="group72-280" transform="translate(25.875,2.84217E-014)">
				<title>Sheet.72</title>
				<g id="shape73-281" transform="translate(224.835,276.082) rotate(104.036)">
					<title>Sheet.73</title>
					<path d="M0 229.44 L9.28 229.44" class="st5"/>
				</g>
				<g id="shape74-284" transform="translate(-220.335,285.082) rotate(-104.036)">
					<title>Sheet.74</title>
					<path d="M0 229.44 L9.28 229.44" class="st5"/>
				</g>
			</g>
			<g id="shape75-287" transform="translate(28.125,-9)">
				<title>Sheet.75</title>
				<path d="M0 229.44 L17.44 229.44" class="st5"/>
			</g>
			<g id="shape76-290" transform="translate(28.125,2.84217E-014)">
				<title>Sheet.76</title>
				<path d="M0 229.44 L17.44 229.44" class="st5"/>
			</g>
			<g id="shape84-293" transform="translate(46.6875,-4.5)">
				<title>Sheet.84</title>
				<path d="M0 229.44 L191.81 229.44" class="st6"/>
			</g>
			<g id="group85-296" transform="translate(45.5625,2.84217E-014)">
				<title>Sheet.85</title>
				<g id="shape86-297" transform="translate(222.585,164.789) rotate(75.9638)">
					<title>Sheet.86</title>
					<path d="M0 229.44 L4.64 229.44" class="st5"/>
				</g>
				<g id="shape87-300" transform="translate(-222.585,173.789) rotate(-75.9638)">
					<title>Sheet.87</title>
					<path d="M0 229.44 L4.64 229.44" class="st5"/>
				</g>
			</g>
			<g id="shape90-303" transform="translate(-1.69864E-014,-4.5)">
				<title>Sheet.90</title>
				<path d="M0 229.44 L9 229.44" class="st6"/>
			</g>
			<g id="shape91-306" transform="translate(9,2.84217E-014)">
				<title>Sheet.91</title>
				<path d="M1.12 229.44 L0 224.94 L1.12 220.44" class="st5"/>
			</g>
		</g>
		<g id="group178-309" transform="translate(101.625,-81.4369)">
			<title>Sheet.178</title>
			<g id="shape132-310" transform="translate(10.125,-9)">
				<title>Sheet.132</title>
				<path d="M0 229.44 L15.75 229.44" class="st5"/>
			</g>
			<g id="shape133-313" transform="translate(10.125,2.84217E-014)">
				<title>Sheet.133</title>
				<path d="M0 229.44 L15.75 229.44" class="st5"/>
			</g>
			<g id="group134-316" transform="translate(25.875,2.84217E-014)">
				<title>Sheet.134</title>
				<g id="shape135-317" transform="translate(224.835,276.082) rotate(104.036)">
					<title>Sheet.135</title>
					<path d="M0 229.44 L9.28 229.44" class="st5"/>
				</g>
				<g id="shape136-320" transform="translate(-220.335,285.082) rotate(-104.036)">
					<title>Sheet.136</title>
					<path d="M0 229.44 L9.28 229.44" class="st5"/>
				</g>
			</g>
			<g id="shape137-323" transform="translate(28.125,-9)">
				<title>Sheet.137</title>
				<path d="M0 229.44 L17.44 229.44" class="st5"/>
			</g>
			<g id="shape138-326" transform="translate(28.125,2.84217E-014)">
				<title>Sheet.138</title>
				<path d="M0 229.44 L17.44 229.44" class="st5"/>
			</g>
			<g id="shape139-329" transform="translate(82.125,-9)">
				<title>Sheet.139</title>
				<path d="M0 229.44 L35.44 229.44" class="st5"/>
			</g>
			<g id="shape140-332" transform="translate(82.125,2.84217E-014)">
				<title>Sheet.140</title>
				<path d="M0 229.44 L35.44 229.44" class="st5"/>
			</g>
			<g id="shape141-335" transform="translate(154.125,-9)">
				<title>Sheet.141</title>
				<path d="M0 229.44 L16.88 229.44" class="st5"/>
			</g>
			<g id="shape142-338" transform="translate(154.125,2.84217E-014)">
				<title>Sheet.142</title>
				<path d="M0 229.44 L16.88 229.44" class="st5"/>
			</g>
			<g id="shape143-341" transform="translate(46.6875,-4.5)">
				<title>Sheet.143</title>
				<path d="M0 229.44 L34.31 229.44" class="st6"/>
			</g>
			<g id="shape144-344" transform="translate(81,2.84217E-014)">
				<title>Sheet.144</title>
				<path d="M1.12 229.44 L0 224.94 L1.12 220.44" class="st5"/>
			</g>
			<g id="shape145-347" transform="translate(153,2.84217E-014)">
				<title>Sheet.145</title>
				<path d="M1.12 229.44 L0 224.94 L1.12 220.44" class="st5"/>
			</g>
			<g id="group146-350" transform="translate(117.563,2.84217E-014)">
				<title>Sheet.146</title>
				<g id="shape147-351" transform="translate(222.585,164.789) rotate(75.9638)">
					<title>Sheet.147</title>
					<path d="M0 229.44 L4.64 229.44" class="st5"/>
				</g>
				<g id="shape148-354" transform="translate(-222.585,173.789) rotate(-75.9638)">
					<title>Sheet.148</title>
					<path d="M0 229.44 L4.64 229.44" class="st5"/>
				</g>
			</g>
			<g id="group149-357" transform="translate(45.5625,2.84217E-014)">
				<title>Sheet.149</title>
				<g id="shape150-358" transform="translate(222.585,164.789) rotate(75.9638)">
					<title>Sheet.150</title>
					<path d="M0 229.44 L4.64 229.44" class="st5"/>
				</g>
				<g id="shape151-361" transform="translate(-222.585,173.789) rotate(-75.9638)">
					<title>Sheet.151</title>
					<path d="M0 229.44 L4.64 229.44" class="st5"/>
				</g>
			</g>
			<g id="shape152-364" transform="translate(118.688,-4.5)">
				<title>Sheet.152</title>
				<path d="M0 229.44 L34.31 229.44" class="st6"/>
			</g>
			<g id="group153-367" transform="translate(171,2.84217E-014)">
				<title>Sheet.153</title>
				<g id="shape154-368" transform="translate(222.585,164.789) rotate(75.9638)">
					<title>Sheet.154</title>
					<path d="M0 229.44 L4.64 229.44" class="st5"/>
				</g>
				<g id="shape155-371" transform="translate(-222.585,173.789) rotate(-75.9638)">
					<title>Sheet.155</title>
					<path d="M0 229.44 L4.64 229.44" class="st5"/>
				</g>
			</g>
			<g id="shape156-374" transform="translate(172.125,-4.5)">
				<title>Sheet.156</title>
				<path d="M0 229.44 L66.37 229.44" class="st6"/>
			</g>
			<g id="shape157-377" transform="translate(1.4988E-014,-4.5)">
				<title>Sheet.157</title>
				<path d="M0 229.44 L9 229.44" class="st6"/>
			</g>
			<g id="shape158-380" transform="translate(9,2.84217E-014)">
				<title>Sheet.158</title>
				<path d="M1.12 229.44 L0 224.94 L1.12 220.44" class="st5"/>
			</g>
		</g>
		<g id="group179-383" transform="translate(101.625,-62.2496)">
			<title>Sheet.179</title>
			<g id="shape83-384">
				<title>Sheet.83</title>
				<path d="M0 229.44 L63 229.44 L63 220.44 L81 220.44 L81 229.44 L200.25 229.44" class="st5"/>
			</g>
			<g id="shape110-387" transform="translate(200.25,2.84217E-014)">
				<title>Sheet.110</title>
				<path d="M0 229.44 L38.25 229.44" class="st5"/>
			</g>
		</g>
		<g id="group180-390" transform="translate(101.625,-43.0623)">
			<title>Sheet.180</title>
			<g id="shape92-391">
				<title>Sheet.92</title>
				<path d="M0 229.44 L135 229.44" class="st5"/>
			</g>
			<g id="shape93-394" transform="translate(135,2.84217E-014)">
				<title>Sheet.93</title>
				<path d="M0 229.44 L0 220.44 L18 220.44" class="st5"/>
			</g>
			<g id="shape94-397" transform="translate(153,2.84217E-014)">
				<title>Sheet.94</title>
				<path d="M12.37 229.44 L0 229.44 L0 220.44" class="st5"/>
			</g>
			<g id="shape95-400" transform="translate(165.375,2.84217E-014)">
				<title>Sheet.95</title>
				<path d="M0 229.44 L23.62 229.44" class="st5"/>
			</g>
			<g id="shape111-403" transform="translate(189,2.84217E-014)">
				<title>Sheet.111</title>
				<path d="M0 229.44 L0 220.44 L18 220.44 L18 229.44 L49.5 229.44" class="st5"/>
			</g>
		</g>
		<g id="group182-406" transform="translate(101.625,-23.875)">
			<title>Sheet.182</title>
			<g id="shape112-407" transform="translate(136.125,-9)">
				<title>Sheet.112</title>
				<path d="M0 229.44 L16.88 229.44" class="st5"/>
			</g>
			<g id="shape113-410" transform="translate(136.125,2.84217E-014)">
				<title>Sheet.113</title>
				<path d="M0 229.44 L16.88 229.44" class="st5"/>
			</g>
			<g id="shape114-413" transform="translate(135,2.84217E-014)">
				<title>Sheet.114</title>
				<path d="M1.12 229.44 L0 224.94 L1.12 220.44" class="st5"/>
			</g>
			<g id="group115-416" transform="translate(153,2.84217E-014)">
				<title>Sheet.115</title>
				<g id="shape116-417" transform="translate(222.585,164.789) rotate(75.9638)">
					<title>Sheet.116</title>
					<path d="M0 229.44 L4.64 229.44" class="st5"/>
				</g>
				<g id="shape117-420" transform="translate(-222.585,173.789) rotate(-75.9638)">
					<title>Sheet.117</title>
					<path d="M0 229.44 L4.64 229.44" class="st5"/>
				</g>
			</g>
			<g id="shape118-423" transform="translate(0,-4.5)">
				<title>Sheet.118</title>
				<path d="M0 229.44 L135 229.44" class="st6"/>
			</g>
			<g id="shape119-426" transform="translate(154.125,-4.5)">
				<title>Sheet.119</title>
				<path d="M0 229.44 L34.31 229.44" class="st6"/>
			</g>
			<g id="shape120-429" transform="translate(207.563,-4.5)">
				<title>Sheet.120</title>
				<path d="M0 229.44 L30.94 229.44" class="st6"/>
			</g>
			<g id="group121-432" transform="translate(188.438,2.84217E-014)">
				<title>Sheet.121</title>
				<g id="shape122-433" transform="translate(1.125,-9)">
					<title>Sheet.122</title>
					<path d="M0 229.44 L16.88 229.44" class="st5"/>
				</g>
				<g id="shape123-436" transform="translate(1.125,2.84217E-014)">
					<title>Sheet.123</title>
					<path d="M0 229.44 L16.88 229.44" class="st5"/>
				</g>
				<g id="shape124-439">
					<title>Sheet.124</title>
					<path d="M1.12 229.44 L0 224.94 L1.12 220.44" class="st5"/>
				</g>
				<g id="group125-442" transform="translate(18,2.84217E-014)">
					<title>Sheet.125</title>
					<g id="shape126-443" transform="translate(222.585,164.789) rotate(75.9638)">
						<title>Sheet.126</title>
						<path d="M0 229.44 L4.64 229.44" class="st5"/>
					</g>
					<g id="shape127-446" transform="translate(-222.585,173.789) rotate(-75.9638)">
						<title>Sheet.127</title>
						<path d="M0 229.44 L4.64 229.44" class="st5"/>
					</g>
				</g>
			</g>
		</g>
	</g>
</svg>
