<?xml version="1.0" encoding="UTF-8" standalone="no"?>
<!DOCTYPE svg PUBLIC "-//W3C//DTD SVG 1.1//EN" "http://www.w3.org/Graphics/SVG/1.1/DTD/svg11.dtd">
<!-- Generated by Microsoft Visio, SVG Export nvdla-hwarch-small.svg Small NVDLA -->
<svg xmlns="http://www.w3.org/2000/svg" xmlns:xlink="http://www.w3.org/1999/xlink" xmlns:ev="http://www.w3.org/2001/xml-events"
		width="4.25333in" height="4.25333in" viewBox="0 0 306.24 306.24" xml:space="preserve" color-interpolation-filters="sRGB"
		class="st13">
	<style type="text/css">
	<![CDATA[
		.st1 {fill:#f2dcda;stroke:#000000;stroke-linecap:round;stroke-linejoin:round;stroke-width:0.24}
		.st2 {fill:#000000;font-family:Arial;font-size:0.833336em}
		.st3 {fill:#e5b9b5;stroke:#000000;stroke-linecap:round;stroke-linejoin:round;stroke-width:0.24}
		.st4 {marker-end:url(#mrkr13-21);stroke:#000000;stroke-linecap:round;stroke-linejoin:round;stroke-width:0.25}
		.st5 {fill:#000000;fill-opacity:1;stroke:#000000;stroke-opacity:1;stroke-width:0.090252707581227}
		.st6 {fill:#ffffff}
		.st7 {stroke:#000000;stroke-linecap:round;stroke-linejoin:round;stroke-width:0.24}
		.st8 {fill:#ebf1df;stroke:#000000;stroke-linecap:round;stroke-linejoin:round;stroke-width:0.24}
		.st9 {marker-end:url(#mrkr13-21);stroke:#000000;stroke-dasharray:1.75,1.25;stroke-linecap:round;stroke-linejoin:round;stroke-width:0.25}
		.st10 {fill:none;stroke:none;stroke-linecap:round;stroke-linejoin:round;stroke-width:0.75}
		.st11 {fill:#000000;font-family:Arial;font-size:0.75em}
		.st12 {font-size:1em}
		.st13 {fill:none;fill-rule:evenodd;font-size:12px;overflow:visible;stroke-linecap:square;stroke-miterlimit:3}
	]]>
	</style>

	<defs id="Markers">
		<g id="lend13">
			<path d="M 3 1 L 0 0 L 3 -1 L 3 1 " style="stroke:none"/>
		</g>
		<marker id="mrkr13-21" class="st5" refX="-33.24" orient="auto" markerUnits="strokeWidth" overflow="visible">
			<use xlink:href="#lend13" transform="scale(-11.08,-11.08) "/>
		</marker>
	</defs>
	<g>
		<title>Small system</title>
		<g id="shape1-1" transform="translate(18.12,-72.12)">
			<title>Rectangle.17</title>
			<desc>NVDLA</desc>
			<rect x="0" y="162.24" width="180" height="144" class="st1"/>
			<text x="73.33" y="237.24" class="st2">NVDLA</text>		</g>
		<g id="shape2-4" transform="translate(126.12,-180.12)">
			<title>Rectangle.2</title>
			<desc>CSB</desc>
			<rect x="0" y="270.24" width="36" height="36" class="st3"/>
			<text x="7.72" y="291.24" class="st2">CSB</text>		</g>
		<g id="shape3-7" transform="translate(54.12,-180.12)">
			<title>Rectangle.3</title>
			<desc>IRQ</desc>
			<rect x="0" y="270.24" width="36" height="36" class="st3"/>
			<text x="9.11" y="291.24" class="st2">IRQ</text>		</g>
		<g id="shape4-10" transform="translate(36.12,-72.12)">
			<title>Rectangle.4</title>
			<desc>SRAMIF</desc>
			<rect x="0" y="270.24" width="54" height="36" class="st3"/>
			<text x="8.11" y="291.24" class="st2">SRAMIF</text>		</g>
		<g id="shape5-13" transform="translate(126.12,-72.12)">
			<title>Rectangle.5</title>
			<desc>DBBIF</desc>
			<rect x="0" y="270.24" width="54" height="36" class="st3"/>
			<text x="12.28" y="291.24" class="st2">DBBIF</text>		</g>
		<g id="shape6-16" transform="translate(63.12,-216.12)">
			<title>Dynamic connector.9</title>
			<path d="M9 306.24 L9 278.55" class="st4"/>
		</g>
		<g id="shape7-22" transform="translate(-153.12,54.12) rotate(-90) scale(-1,1)">
			<title>Straight bus.48</title>
			<path d="M27 291.84 L9 291.84 L9 288.24 L0 297.24 L9 306.24 L9 302.64 L27 302.64 L27 291.84 Z" class="st6"/>
			<path d="M27 291.84 L9 291.84 L9 288.24 L0 297.24 L9 306.24 L9 302.64 L27 302.64" class="st7"/>
		</g>
		<g id="shape8-25" transform="translate(441.36,90.12) rotate(90) scale(-1,1)">
			<title>Straight bus.8</title>
			<path d="M27 291.84 L9 291.84 L9 288.24 L0 297.24 L9 306.24 L9 302.64 L27 302.64 L27 291.84 Z" class="st6"/>
			<path d="M27 291.84 L9 291.84 L9 288.24 L0 297.24 L9 306.24 L9 302.64 L27 302.64" class="st7"/>
		</g>
		<g id="shape9-28" transform="translate(18.12,-252.12)">
			<title>Rectangle.9</title>
			<desc>CPU</desc>
			<rect x="0" y="270.24" width="180" height="36" class="st8"/>
			<text x="79.44" y="291.24" class="st2">CPU</text>		</g>
		<g id="shape10-31" transform="translate(54.12,-72.12)">
			<title>Dynamic connector.10</title>
			<path d="M9 306.24 L9 333.93" class="st9"/>
		</g>
		<g id="shape11-36" transform="translate(36.12,-27.12)">
			<title>Sheet.11</title>
			<desc>n/c</desc>
			<rect x="0" y="298.24" width="54" height="8" class="st10"/>
			<text x="21" y="304.94" class="st11">n/c</text>		</g>
		<g id="shape12-39" transform="translate(234.12,-18.12)">
			<title>Rectangle.12</title>
			<desc>External DRAM</desc>
			<rect x="0" y="36.24" width="54" height="270" class="st8"/>
			<text x="8.66" y="168.24" class="st2">External <tspan x="12.28" dy="1.2em" class="st12">DRAM</tspan></text>		</g>
		<g id="shape13-43" transform="translate(234.12,-261.12) scale(-1,1)">
			<title>Straight bus.13</title>
			<path d="M27 291.84 L9 291.84 L9 288.24 L0 297.24 L9 306.24 L9 302.64 L27 302.64 L27 291.84 Z" class="st6"/>
			<path d="M27 291.84 L9 291.84 L9 288.24 L0 297.24 L9 306.24 L9 302.64 L27 302.64" class="st7"/>
		</g>
		<g id="shape14-46" transform="translate(198.12,333.36) scale(1,-1)">
			<title>Straight bus.14</title>
			<path d="M27 291.84 L9 291.84 L9 288.24 L0 297.24 L9 306.24 L9 302.64 L27 302.64 L27 291.84 Z" class="st6"/>
			<path d="M27 291.84 L9 291.84 L9 288.24 L0 297.24 L9 306.24 L9 302.64 L27 302.64" class="st7"/>
		</g>
		<g id="shape15-49" transform="translate(153.152,-54.1129)">
			<title>Elbow bus 2.50</title>
			<path d="M5.4 306.24 L5.4 318.83 L71.97 318.83 L71.97 315.23 L80.97 324.23 L71.97 333.23 L71.97 329.63 L-5.4 329.63 L-5.4
						 306.24 L5.4 306.24 Z" class="st6"/>
			<path d="M5.4 306.24 L5.4 318.83 L71.97 318.83 L71.97 315.23 L80.97 324.23 L71.97 333.23 L71.97 329.63 L-5.4 329.63 L-5.4
						 306.24" class="st7"/>
		</g>
		<g id="shape16-52" transform="translate(-144.12,234.12) rotate(-90) scale(-1,1)">
			<title>Straight bus.16</title>
			<path d="M27 291.84 L9 291.84 L9 288.24 L0 297.24 L9 306.24 L9 302.64 L27 302.64 L27 291.84 Z" class="st6"/>
			<path d="M27 291.84 L9 291.84 L9 288.24 L0 297.24 L9 306.24 L9 302.64 L27 302.64" class="st7"/>
		</g>
	</g>
</svg>
