<?xml version="1.0" encoding="UTF-8" standalone="no"?>
<!DOCTYPE svg PUBLIC "-//W3C//DTD SVG 1.1//EN" "http://www.w3.org/Graphics/SVG/1.1/DTD/svg11.dtd">
<!-- Generated by Microsoft Visio, SVG Export nvdla-primer-core-diagram.svg Headless NVDLA Core -->
<svg xmlns="http://www.w3.org/2000/svg" xmlns:xlink="http://www.w3.org/1999/xlink" xmlns:ev="http://www.w3.org/2001/xml-events"
		width="5.24964in" height="4.25333in" viewBox="0 0 377.974 306.24" xml:space="preserve" color-interpolation-filters="sRGB"
		class="st13">
	<style type="text/css">
	<![CDATA[
		.st1 {fill:#ebf1df;stroke:#000000;stroke-linecap:round;stroke-linejoin:round;stroke-width:0.24}
		.st2 {fill:#000000;font-family:Arial;font-size:0.75em}
		.st3 {fill:#eeeaf2;stroke:#000000;stroke-linecap:round;stroke-linejoin:round;stroke-width:0.24}
		.st4 {fill:#000000;font-family:Arial;font-size:0.666664em}
		.st5 {marker-end:url(#mrkr13-15);marker-start:url(#mrkr13-13);stroke:#000000;stroke-linecap:round;stroke-linejoin:round;stroke-width:1}
		.st6 {fill:#000000;fill-opacity:1;stroke:#000000;stroke-opacity:1;stroke-width:0.35714285714286}
		.st7 {fill:#ffffff;stroke:none;stroke-linecap:butt;stroke-width:7.2}
		.st8 {fill:#000000;font-family:Arial;font-size:0.499992em}
		.st9 {font-size:1em}
		.st10 {marker-end:url(#mrkr5-68);stroke:#000000;stroke-linecap:round;stroke-linejoin:round;stroke-width:0.25}
		.st11 {fill:#000000;fill-opacity:1;stroke:#000000;stroke-opacity:1;stroke-width:0.1219512195122}
		.st12 {marker-end:url(#mrkr5-68);marker-start:url(#mrkr5-95);stroke:#000000;stroke-linecap:round;stroke-linejoin:round;stroke-width:0.25}
		.st13 {fill:none;fill-rule:evenodd;font-size:12px;overflow:visible;stroke-linecap:square;stroke-miterlimit:3}
	]]>
	</style>

	<defs id="Markers">
		<g id="lend13">
			<path d="M 3 1 L 0 0 L 3 -1 L 3 1 " style="stroke:none"/>
		</g>
		<marker id="mrkr13-13" class="st6" refX="8.04" orient="auto" markerUnits="strokeWidth" overflow="visible">
			<use xlink:href="#lend13" transform="scale(2.8) "/>
		</marker>
		<marker id="mrkr13-15" class="st6" refX="-8.4" orient="auto" markerUnits="strokeWidth" overflow="visible">
			<use xlink:href="#lend13" transform="scale(-2.8,-2.8) "/>
		</marker>
		<g id="lend5">
			<path d="M 2 1 L 0 0 L 1.98117 -0.993387 C 1.67173 -0.364515 1.67301 0.372641 1.98465 1.00043 " style="stroke:none"/>
		</g>
		<marker id="mrkr5-68" class="st11" refX="-14.35" orient="auto" markerUnits="strokeWidth" overflow="visible">
			<use xlink:href="#lend5" transform="scale(-8.2,-8.2) "/>
		</marker>
		<marker id="mrkr5-95" class="st11" refX="12.91" orient="auto" markerUnits="strokeWidth" overflow="visible">
			<use xlink:href="#lend5" transform="scale(8.2) "/>
		</marker>
	</defs>
	<g>
		<title>Headless NVDLA Core</title>
		<g id="shape1-1" transform="translate(89.8544,-18.12)">
			<title>Sheet.1</title>
			<desc>Headless NVDLA core</desc>
			<rect x="0" y="36.24" width="270" height="270" class="st1"/>
			<text x="178.96" y="45.34" class="st2">Headless NVDLA core</text>		</g>
		<g id="shape2-4" transform="translate(98.8544,-243.12)">
			<title>Sheet.2</title>
			<desc>Configuration interface block</desc>
			<rect x="0" y="279.24" width="252" height="27" class="st3"/>
			<text x="75.3" y="295.14" class="st4">Configuration interface block</text>		</g>
		<g id="shape3-7" transform="translate(26.8544,-256.62)">
			<title>Sheet.3</title>
			<desc>CSB / interrupt interface</desc>
			<path d="M8.04 306.24 L8.4 306.24 L63.6 306.24" class="st5"/>
			<rect x="16.3262" y="307.24" width="39.3475" height="14.4001" class="st7"/>
			<text x="16.33" y="312.64" class="st8">CSB / interrupt <tspan x="24.49" dy="1.2em" class="st9">interface</tspan></text>		</g>
		<g id="shape4-19" transform="translate(98.8544,-27.12)">
			<title>Sheet.4</title>
			<desc>Memory interface block</desc>
			<rect x="0" y="99.24" width="63" height="207" class="st3"/>
			<text x="17.05" y="200.34" class="st4">Memory <tspan x="5.71" dy="1.2em" class="st9">interface block</tspan></text>		</g>
		<g id="shape5-23" transform="translate(26.8544,-165.12)">
			<title>Sheet.5</title>
			<desc>DBB interface</desc>
			<path d="M8.04 306.24 L8.4 306.24 L63.6 306.24" class="st5"/>
			<rect x="17.4922" y="307.24" width="37.0157" height="7.20016" class="st7"/>
			<text x="17.49" y="312.64" class="st8">DBB interface</text>		</g>
		<g id="shape6-32" transform="translate(26.8544,-96.12)">
			<title>Sheet.6</title>
			<desc>Second DBB interface (optional)</desc>
			<path d="M8.04 306.24 L8.4 306.24 L63.6 306.24" class="st5"/>
			<rect x="11.1539" y="307.24" width="49.6923" height="14.4001" class="st7"/>
			<text x="18.82" y="312.64" class="st8">Second DBB <tspan x="11.15" dy="1.2em" class="st9">interface </tspan>(optional)</text>		</g>
		<g id="shape7-42" transform="translate(170.854,-207.12)">
			<title>Sheet.7</title>
			<desc>Convolution buffer</desc>
			<rect x="0" y="279.24" width="81" height="27" class="st3"/>
			<text x="8.04" y="295.14" class="st4">Convolution buffer</text>		</g>
		<g id="shape8-45" transform="translate(260.854,-207.12)">
			<title>Sheet.8</title>
			<desc>Convolution core</desc>
			<rect x="0" y="279.24" width="90" height="27" class="st3"/>
			<text x="14.98" y="295.14" class="st4">Convolution core</text>		</g>
		<g id="shape9-48" transform="translate(260.854,-171.12)">
			<title>Sheet.9</title>
			<desc>Activation engine (SDP)</desc>
			<rect x="0" y="279.24" width="90" height="27" class="st3"/>
			<text x="2.54" y="295.14" class="st4">Activation engine (SDP)</text>		</g>
		<g id="shape10-51" transform="translate(260.854,-135.12)">
			<title>Sheet.10</title>
			<desc>Pooling engine (PDP)</desc>
			<rect x="0" y="279.24" width="90" height="27" class="st3"/>
			<text x="6.53" y="295.14" class="st4">Pooling engine (PDP)</text>		</g>
		<g id="shape11-54" transform="translate(260.854,-99.12)">
			<title>Sheet.11</title>
			<desc>Local resp. norm (CDP)</desc>
			<rect x="0" y="279.24" width="90" height="27" class="st3"/>
			<text x="2.99" y="295.14" class="st4">Local resp. norm (CDP)</text>		</g>
		<g id="shape12-57" transform="translate(260.854,-63.12)">
			<title>Sheet.12</title>
			<desc>Reshape (RUBIK)</desc>
			<rect x="0" y="279.24" width="90" height="27" class="st3"/>
			<text x="12.99" y="295.14" class="st4">Reshape (RUBIK)</text>		</g>
		<g id="shape13-60" transform="translate(260.854,-27.12)">
			<title>Sheet.13</title>
			<desc>Bridge DMA</desc>
			<rect x="0" y="279.24" width="90" height="27" class="st3"/>
			<text x="23.44" y="295.14" class="st4">Bridge DMA</text>		</g>
		<g id="shape14-63" transform="translate(161.854,-220.62)">
			<title>Sheet.14</title>
			<path d="M0 306.24 L5.41 306.24" class="st10"/>
		</g>
		<g id="shape15-69" transform="translate(251.854,-220.62)">
			<title>Sheet.15</title>
			<path d="M0 306.24 L5.41 306.24" class="st10"/>
		</g>
		<g id="shape16-74" transform="translate(612.094,99.12) rotate(90)">
			<title>Sheet.16</title>
			<path d="M0 306.24 L5.41 306.24" class="st10"/>
		</g>
		<g id="shape17-79" transform="translate(612.094,135.12) rotate(90)">
			<title>Sheet.17</title>
			<path d="M0 306.24 L5.41 306.24" class="st10"/>
		</g>
		<g id="shape18-84" transform="translate(612.094,171.12) rotate(90)">
			<title>Sheet.18</title>
			<path d="M0 306.24 L5.41 306.24" class="st10"/>
		</g>
		<g id="shape19-89" transform="translate(161.854,-76.62)">
			<title>Sheet.19</title>
			<path d="M3.23 306.24 L3.59 306.24 L95.41 306.24" class="st12"/>
		</g>
		<g id="shape20-97" transform="translate(161.854,-40.62)">
			<title>Sheet.20</title>
			<path d="M3.23 306.24 L3.59 306.24 L95.41 306.24" class="st12"/>
		</g>
		<g id="shape21-104" transform="translate(161.854,-112.62)">
			<title>Sheet.21</title>
			<path d="M3.23 306.24 L3.59 306.24 L95.41 306.24" class="st12"/>
		</g>
		<g id="shape22-111" transform="translate(161.854,-148.62)">
			<title>Sheet.22</title>
			<path d="M3.23 306.24 L3.59 306.24 L95.41 306.24" class="st12"/>
		</g>
		<g id="shape23-118" transform="translate(161.854,-184.62)">
			<title>Sheet.23</title>
			<path d="M3.23 306.24 L3.59 306.24 L95.41 306.24" class="st12"/>
		</g>
	</g>
</svg>
